<?xml version="1.0" encoding="UTF-8"?>
<!DOCTYPE svg PUBLIC "-//W3C//DTD SVG 1.1//EN" "http://www.w3.org/Graphics/SVG/1.1/DTD/svg11.dtd">
<svg xmlns="http://www.w3.org/2000/svg" version="1.1" width="28px" height="28px" viewBox="0 0 512 512" style="shape-rendering:geometricPrecision; text-rendering:geometricPrecision; image-rendering:optimizeQuality; fill-rule:evenodd; clip-rule:evenodd" xmlns:xlink="http://www.w3.org/1999/xlink">
<g><path style="opacity:0.96" fill="#000000" d="M 511.5,155.5 C 511.5,166.5 511.5,177.5 511.5,188.5C 507.494,218.353 495.66,244.687 476,267.5C 405.473,338.361 334.639,408.861 263.5,479C 256.844,482.142 250.51,481.475 244.5,477C 172.973,405.806 101.806,334.306 31,262.5C 13.6058,240.718 3.10576,216.051 -0.5,188.5C -0.5,177.5 -0.5,166.5 -0.5,155.5C 8.73481,98.7546 40.0681,59.588 93.5,38C 148.614,21.0312 197.614,31.6979 240.5,70C 245.667,75.1667 250.833,80.3333 256,85.5C 300.393,34.7743 354.893,19.2743 419.5,39C 472,60.659 502.666,99.4923 511.5,155.5 Z M 129.5,60.5 C 160.524,58.455 188.191,66.955 212.5,86C 223.167,96.6667 233.833,107.333 244.5,118C 251.254,123.438 258.254,123.771 265.5,119C 278.228,105.603 291.562,92.9361 305.5,81C 344.776,55.7105 385.109,54.0438 426.5,76C 467.957,103.303 485.791,141.803 480,191.5C 476.328,212.841 467.328,231.507 453,247.5C 387.306,313.528 321.306,379.194 255,444.5C 191,380.5 127,316.5 63,252.5C 30.2129,217.473 21.5462,177.14 37,131.5C 55.0218,91.0795 85.8551,67.4128 129.5,60.5 Z"/></g>
</svg>
