<?xml version="1.0" encoding="UTF-8"?>
<!DOCTYPE svg PUBLIC "-//W3C//DTD SVG 1.1//EN" "http://www.w3.org/Graphics/SVG/1.1/DTD/svg11.dtd">
<svg xmlns="http://www.w3.org/2000/svg" version="1.1" width="512px" height="512px" viewBox="0 0 512 512" style="shape-rendering:geometricPrecision; text-rendering:geometricPrecision; image-rendering:optimizeQuality; fill-rule:evenodd; clip-rule:evenodd" xmlns:xlink="http://www.w3.org/1999/xlink">
<g><path style="opacity:0.997" fill="#f9585e" d="M 138.5,75.5 C 187.098,72.3037 226.098,89.9704 255.5,128.5C 294.144,79.6759 343.144,64.8425 402.5,84C 445.414,104.622 469.247,138.788 474,186.5C 475.793,209.87 471.793,232.203 462,253.5C 447.884,281.613 429.884,306.946 408,329.5C 368.422,369.343 324.588,403.51 276.5,432C 262.5,436.667 248.5,436.667 234.5,432C 178.801,399.322 129.301,358.822 86,310.5C 69.045,290.272 55.3783,267.938 45,243.5C 28.712,195.489 36.3787,151.822 68,112.5C 87.4363,92.3657 110.936,80.0324 138.5,75.5 Z"/></g>
</svg>
